<svg width="70" height="41" viewBox="0 0 70 41" fill="none" xmlns="http://www.w3.org/2000/svg">
<path d="M16.74 23.796C18.084 23.796 18.756 24.312 18.756 25.344C18.756 26.448 17.964 27 16.38 27H12.924C11.508 27 10.8 26.808 10.8 26.424C10.8 26.352 10.848 26.196 10.944 25.956C11.064 25.716 11.124 25.512 11.124 25.344C11.124 24.768 11.232 24.372 11.448 24.156C11.664 23.916 12.156 23.796 12.924 23.796H13.284V17.604H6.12V23.796H6.84C7.488 23.796 7.896 23.952 8.064 24.264C8.16 24.432 8.208 24.84 8.208 25.488C8.208 26.136 8.148 26.532 8.028 26.676C7.86 26.892 7.428 27 6.732 27H2.304C1.2 27 0.648 26.448 0.648 25.344C0.648 24.312 1.32 23.796 2.664 23.796V9.432C1.992 9.408 1.512 9.324 1.224 9.18L0.72 8.532L0.648 7.812C0.528 6.708 1.092 6.156 2.34 6.156H6.552C7.32 6.156 7.824 6.288 8.064 6.552C8.232 6.768 8.316 7.176 8.316 7.776C8.316 8.4 8.208 8.832 7.992 9.072C7.776 9.312 7.26 9.432 6.444 9.432H6.12V14.436H13.284V9.432H12.6C11.928 9.432 11.496 9.3 11.304 9.036C11.184 8.844 11.124 8.412 11.124 7.74C11.124 7.044 11.112 6.72 11.088 6.768C11.16 6.504 11.388 6.324 11.772 6.228L13.032 6.156H17.136C18.072 6.156 18.612 6.684 18.756 7.74C18.756 8.868 18.084 9.432 16.74 9.432V23.796ZM21.7505 9.288C21.3185 9.264 20.9105 9.144 20.5265 8.928C20.1665 8.616 19.9865 8.208 19.9865 7.704C19.9865 6.816 20.4785 6.3 21.4625 6.156H27.1145C28.6265 6.156 29.3825 6.672 29.3825 7.704C29.3825 8.784 28.6865 9.324 27.2945 9.324H25.2065L27.1865 20.556L29.8145 12.06C29.9585 11.628 30.1145 11.34 30.2825 11.196C30.4745 11.052 30.8345 10.956 31.3625 10.908H32.1905C33.0305 10.908 33.5705 11.256 33.8105 11.952L36.7985 20.664L38.6345 9.324H36.6185C35.2025 9.324 34.4945 8.784 34.4945 7.704C34.4945 6.672 35.2625 6.156 36.7985 6.156H42.0545C42.4625 6.156 42.8105 6.312 43.0985 6.624C43.4105 6.936 43.5665 7.296 43.5665 7.704C43.5665 8.424 43.1945 8.916 42.4505 9.18L41.9105 9.288L38.8865 25.74C38.8865 26.46 38.5025 26.88 37.7345 27H36.4025C35.9225 27 35.5625 26.664 35.3225 25.992L31.7585 15.732L28.5905 25.992C28.3985 26.592 27.9185 26.928 27.1505 27H26.1785C25.8665 27 25.5425 26.916 25.2065 26.748L24.8825 25.776L21.7505 9.288Z" fill="white"/>
<path d="M46.6411 9.288C46.2091 9.264 45.8011 9.144 45.4171 8.928C45.0571 8.616 44.8771 8.208 44.8771 7.704C44.8771 6.816 45.3691 6.3 46.3531 6.156H52.0051C53.5171 6.156 54.2731 6.672 54.2731 7.704C54.2731 8.784 53.5771 9.324 52.1851 9.324H50.0971L52.0771 20.556L54.7051 12.06C54.8491 11.628 55.0051 11.34 55.1731 11.196C55.3651 11.052 55.7251 10.956 56.2531 10.908H57.0811C57.9211 10.908 58.4611 11.256 58.7011 11.952L61.6891 20.664L63.5251 9.324H61.5091C60.0931 9.324 59.3851 8.784 59.3851 7.704C59.3851 6.672 60.1531 6.156 61.6891 6.156H66.9451C67.3531 6.156 67.7011 6.312 67.9891 6.624C68.3011 6.936 68.4571 7.296 68.4571 7.704C68.4571 8.424 68.0851 8.916 67.3411 9.18L66.8011 9.288L63.7771 25.74C63.7771 26.46 63.3931 26.88 62.6251 27H61.2931C60.8131 27 60.4531 26.664 60.2131 25.992L56.6491 15.732L53.4811 25.992C53.2891 26.592 52.8091 26.928 52.0411 27H51.0691C50.7571 27 50.4331 26.916 50.0971 26.748L49.7731 25.776L46.6411 9.288Z" fill="#7B94EF"/>
<line x1="1" y1="38" x2="42" y2="38" stroke="#4964C1" stroke-width="6"/>
</svg>
